<?xml version="1.0" encoding="UTF-8" standalone="no"?>
<svg
   xmlns:dc="http://purl.org/dc/elements/1.1/"
   xmlns:cc="http://creativecommons.org/ns#"
   xmlns:rdf="http://www.w3.org/1999/02/22-rdf-syntax-ns#"
   xmlns:svg="http://www.w3.org/2000/svg"
   xmlns="http://www.w3.org/2000/svg"
   xmlns:sodipodi="http://sodipodi.sourceforge.net/DTD/sodipodi-0.dtd"
   xmlns:inkscape="http://www.inkscape.org/namespaces/inkscape"
   width="49.129848mm"
   height="8.8541431mm"
   viewBox="0 0 174.08216 31.372951"
   id="svg4875"
   version="1.1"
   inkscape:version="1.0.2-2 (e86c870879, 2021-01-15)"
   sodipodi:docname="logo-dark.svg">
  <defs
     id="defs4877" />
  <sodipodi:namedview
     id="base"
     pagecolor="#FFFFFF"
     bordercolor="#666666"
     borderopacity="1.0"
     inkscape:pageopacity="0"
     inkscape:pageshadow="2"
     inkscape:zoom="5.6"
     inkscape:cx="98.350579"
     inkscape:cy="-47.054076"
     inkscape:document-units="px"
     inkscape:current-layer="root"
     showgrid="false"
     fit-margin-top="0"
     fit-margin-left="0"
     fit-margin-right="0"
     fit-margin-bottom="0"
     inkscape:window-width="3840"
     inkscape:window-height="2066"
     inkscape:window-x="-11"
     inkscape:window-y="-11"
     inkscape:window-maximized="1"
     showguides="true"
     inkscape:guide-bbox="true"
     inkscape:document-rotation="0">
    <sodipodi:guide
       position="-1.7226083,31.393295"
       orientation="0,1"
       id="guide5006" />
    <sodipodi:guide
       position="-1.9123405,-0.012956593"
       orientation="0,1"
       id="guide5008" />
    <sodipodi:guide
       position="-23.414194,10.446473"
       orientation="0,1"
       id="guide5010" />
    <sodipodi:guide
       position="-13.375803,20.98994"
       orientation="0,1"
       id="guide5012" />
    <sodipodi:guide
       position="0.0087198996,62.721869"
       orientation="1,0"
       id="guide5014" />
    <sodipodi:guide
       position="61.346594,31.638831"
       orientation="1,0"
       id="guide5017" />
    <sodipodi:guide
       position="9.1632276,60.764698"
       orientation="1,0"
       id="guide5019" />
    <sodipodi:guide
       position="70.498433,37.815294"
       orientation="1,0"
       id="guide5036" />
  </sodipodi:namedview>
  <metadata
     id="metadata4880">
    <rdf:RDF>
      <cc:Work
         rdf:about="">
        <dc:format>image/svg+xml</dc:format>
        <dc:type
           rdf:resource="http://purl.org/dc/dcmitype/StillImage" />
        <dc:title></dc:title>
      </cc:Work>
    </rdf:RDF>
  </metadata>
  <g
     inkscape:label="Layer 1"
     inkscape:groupmode="layer"
     id="root"
     transform="translate(-244.26803,-218.80317)">
    <path
       style="fill:#000000;fill-opacity:1;stroke:none;stroke-opacity:1"
       d="m 244.26803,234.48952 v -15.68635 h 4.57677 4.57678 v 7.83366 l 1e-5,7.8337 5.20973,-7.8147 5.20974,-7.81468 h 5.21621 5.21621 l -5.2035,7.80511 c -2.86194,4.29282 -5.20351,7.81374 -5.20351,7.82427 0,0.0106 2.34156,3.5314 5.20346,7.82417 2.86191,4.29278 5.20347,7.81361 5.20347,7.82412 0,0.0106 -2.34585,0.0186 -5.21297,0.018 l -5.21295,-8.8e-4 -5.20346,-7.80893 -5.20346,-7.80895 -0.009,7.82903 -0.009,7.82903 h -4.57668 -4.57667 v -15.68635 z m 35.26262,7.81941 5.21935,-7.82898 -5.20032,-7.80034 c -2.86018,-4.29018 -5.20031,-7.80892 -5.20031,-7.8194 0,-0.0105 2.34153,-0.019 5.20341,-0.019 h 5.20345 l 2.59226,3.89199 c 1.42575,2.14061 2.6023,3.8925 2.61456,3.89311 0.0123,6.4e-4 1.19007,-1.7508 2.6174,-3.892 l 2.59513,-3.8931 h 5.21632 5.21629 l -5.20611,7.80901 c -2.86333,4.29496 -5.19761,7.83111 -5.18724,7.85812 0.0107,0.0269 2.34126,3.53334 5.17983,7.79186 2.83856,4.25852 5.17382,7.76413 5.18947,7.79026 0.0227,0.0378 -1.02451,0.0472 -5.18675,0.0464 l -5.21521,-8.8e-4 -2.60802,-3.91577 -2.60803,-3.9158 -2.61119,3.91687 -2.61121,3.91687 h -5.21621 -5.2162 l 5.21933,-7.82896 z"
       id="kx"
       inkscape:connector-curvature="0" />
    <g
       style="fill:#000000;fill-opacity:1;stroke:none;stroke-width:1px;stroke-linecap:butt;stroke-linejoin:miter;stroke-opacity:1"
       id="dashboards">
      <path
         d="M 314.93158,239.56355 V 229.3573 h 3.47875 q 2.15625,0 3.68,1.495 1.52375,1.495 1.52375,3.60813 0,2.11312 -1.52375,3.60812 -1.52375,1.495 -3.68,1.495 z m 2.28563,-2.09875 h 1.19312 q 1.265,0 2.07,-0.8625 0.81938,-0.87687 0.81938,-2.14187 0,-1.265 -0.81938,-2.1275 -0.805,-0.87688 -2.07,-0.87688 h -1.19312 z"
         id="path3346" />
      <path
         d="m 324.35959,239.56355 4.37,-10.20625 h 2.07 l 4.37,10.20625 h -2.38625 l -0.90563,-2.15625 h -4.22625 l -0.90562,2.15625 z m 5.405,-7.20187 -1.29375,3.06187 h 2.57312 z"
         id="path3348" />
      <path
         d="m 339.7357,239.73605 q -1.2075,0 -2.19937,-0.47437 -0.9775,-0.48875 -1.58125,-1.35125 l 1.75375,-1.48063 q 0.37375,0.53188 0.94875,0.84813 0.58937,0.31625 1.16437,0.31625 0.56063,0 0.89125,-0.23 0.345,-0.24438 0.345,-0.61813 0,-0.38812 -0.33062,-0.67562 -0.33063,-0.2875 -1.0925,-0.54625 l -0.71875,-0.24438 q -2.57313,-0.8625 -2.57313,-2.94687 0,-1.45188 0.9775,-2.3 0.99188,-0.84813 2.54438,-0.84813 1.98375,0 3.29187,1.40875 l -1.495,1.58125 q -0.70437,-0.84812 -1.76812,-0.84812 -0.50313,0 -0.87688,0.20125 -0.35937,0.20125 -0.35937,0.575 0,0.38812 0.345,0.6325 0.345,0.23 1.23625,0.54625 l 0.71875,0.25875 q 2.44375,0.87687 2.42937,3.0475 0,1.39437 -1.035,2.27125 -1.02062,0.87687 -2.61625,0.87687 z"
         id="path3350" />
      <path
         d="M 345.70697,239.56355 V 229.3573 h 2.28563 v 3.99625 h 4.11125 v -3.99625 h 2.28563 v 10.20625 h -2.28563 v -4.03937 h -4.11125 v 4.03937 z"
         id="path3352" />
      <path
         d="M 357.2663,239.56355 V 229.3573 h 3.83813 q 1.25062,0 2.14187,0.89125 0.89125,0.87688 0.89125,2.14188 0,1.02062 -0.73312,1.75375 0.66125,0.345 1.04937,0.9775 0.4025,0.6325 0.4025,1.4375 0,1.265 -0.89125,2.14187 -0.89125,0.8625 -2.21375,0.8625 z m 2.28563,-2.09875 h 2.0125 q 0.46,0 0.76187,-0.2875 0.30188,-0.30187 0.30188,-0.73312 0,-0.43125 -0.31625,-0.71875 -0.30188,-0.30188 -0.76188,-0.30188 h -1.99812 z m 0,-3.98187 h 1.29375 q 0.46,0 0.76187,-0.2875 0.30188,-0.2875 0.30188,-0.71875 0,-0.43125 -0.30188,-0.73313 -0.30187,-0.30187 -0.76187,-0.30187 h -1.29375 z"
         id="path3354" />
      <path
         d="m 369.70048,236.61668 q 0.87688,0.90562 2.11313,0.90562 1.23625,0 2.09875,-0.90562 0.8625,-0.90563 0.8625,-2.15625 0,-1.25063 -0.8625,-2.15625 -0.8625,-0.90563 -2.09875,-0.90563 -1.23625,0 -2.11313,0.90563 -0.8625,0.90562 -0.8625,2.15625 0,1.25062 0.8625,2.15625 z m 5.83625,1.56687 q -1.53812,1.5525 -3.72312,1.5525 -2.185,0 -3.7375,-1.53812 -1.53813,-1.5525 -1.53813,-3.7375 0,-2.185 1.53813,-3.72313 1.5525,-1.5525 3.7375,-1.5525 2.185,0 3.72312,1.5525 1.55251,1.5525 1.55251,3.72313 0,2.17062 -1.55251,3.72312 z"
         id="path3356" />
      <path
         d="m 377.88865,239.56355 4.37,-10.20625 h 2.07 l 4.37,10.20625 h -2.38625 l -0.90563,-2.15625 h -4.22625 l -0.90562,2.15625 z m 5.405,-7.20187 -1.29375,3.06187 h 2.57312 z"
         id="path3358" />
      <path
         d="M 390.5124,239.56355 V 229.3573 h 4.025 q 1.40875,0 2.28562,0.89125 0.87688,0.89125 0.87688,2.185 0,1.92625 -1.99813,2.63063 l 3.60813,4.49937 h -2.74563 l -3.40687,-4.21187 h -0.35938 v 4.21187 z m 2.28562,-6.1525 h 1.46625 q 0.5175,0 0.83375,-0.27312 0.33063,-0.27313 0.33063,-0.70438 0,-0.46 -0.33063,-0.71875 -0.31625,-0.25875 -0.83375,-0.25875 h -1.46625 z"
         id="path3360" />
      <path
         d="M 400.78023,239.56355 V 229.3573 h 3.47875 q 2.15625,0 3.68,1.495 1.52375,1.495 1.52375,3.60813 0,2.11312 -1.52375,3.60812 -1.52375,1.495 -3.68,1.495 z m 2.28562,-2.09875 h 1.19313 q 1.265,0 2.07,-0.8625 0.81937,-0.87687 0.81937,-2.14187 0,-1.265 -0.81937,-2.1275 -0.805,-0.87688 -2.07,-0.87688 h -1.19313 z"
         id="path3362" />
      <path
         d="m 414.69885,239.73605 q -1.2075,0 -2.19937,-0.47437 -0.9775,-0.48875 -1.58125,-1.35125 l 1.75375,-1.48063 q 0.37375,0.53188 0.94875,0.84813 0.58937,0.31625 1.16437,0.31625 0.56063,0 0.89125,-0.23 0.345,-0.24438 0.345,-0.61813 0,-0.38812 -0.33062,-0.67562 -0.33063,-0.2875 -1.0925,-0.54625 l -0.71875,-0.24438 q -2.57313,-0.8625 -2.57313,-2.94687 0,-1.45188 0.9775,-2.3 0.99188,-0.84813 2.54438,-0.84813 1.98375,0 3.29187,1.40875 l -1.495,1.58125 q -0.70437,-0.84812 -1.76812,-0.84812 -0.50313,0 -0.87688,0.20125 -0.35937,0.20125 -0.35937,0.575 0,0.38812 0.345,0.6325 0.345,0.23 1.23625,0.54625 l 0.71875,0.25875 q 2.44375,0.87687 2.42937,3.0475 0,1.39437 -1.035,2.27125 -1.02062,0.87687 -2.61625,0.87687 z"
         id="path3364" />
    </g>
  </g>
</svg>
